<svg width="95" height="95" viewBox="0 0 95 95" fill="none" xmlns="http://www.w3.org/2000/svg">
<path d="M23.75 7.91663L11.875 23.75V79.1666C11.875 81.2663 12.7091 83.2799 14.1937 84.7646C15.6784 86.2492 17.692 87.0833 19.7917 87.0833H75.2083C77.308 87.0833 79.3216 86.2492 80.8063 84.7646C82.2909 83.2799 83.125 81.2663 83.125 79.1666V23.75L71.25 7.91663H23.75Z" stroke="#590100" stroke-width="4" stroke-linecap="round" stroke-linejoin="round"/>
<path d="M11.875 23.75H83.125" stroke="#590100" stroke-width="4" stroke-linecap="round" stroke-linejoin="round"/>
<path d="M63.3333 39.5834C63.3333 43.7826 61.6652 47.8099 58.6958 50.7792C55.7265 53.7486 51.6993 55.4167 47.5 55.4167C43.3007 55.4167 39.2735 53.7486 36.3041 50.7792C33.3348 47.8099 31.6667 43.7826 31.6667 39.5834" stroke="#590100" stroke-width="4" stroke-linecap="round" stroke-linejoin="round"/>
</svg>
