<svg width="95" height="95" viewBox="0 0 95 95" fill="none" xmlns="http://www.w3.org/2000/svg">
<path d="M59.375 7.91663H23.75C21.6504 7.91663 19.6368 8.7507 18.1521 10.2354C16.6674 11.72 15.8334 13.7337 15.8334 15.8333V79.1666C15.8334 81.2663 16.6674 83.2799 18.1521 84.7646C19.6368 86.2492 21.6504 87.0833 23.75 87.0833H71.25C73.3497 87.0833 75.3633 86.2492 76.848 84.7646C78.3326 83.2799 79.1667 81.2663 79.1667 79.1666V27.7083L59.375 7.91663Z" stroke="#590100" stroke-width="4" stroke-linecap="round" stroke-linejoin="round"/>
<path d="M55.4166 7.91663V23.75C55.4166 25.8496 56.2507 27.8632 57.7354 29.3479C59.22 30.8326 61.2337 31.6666 63.3333 31.6666H79.1666" stroke="#590100" stroke-width="4" stroke-linecap="round" stroke-linejoin="round"/>
<path d="M39.5833 35.625H31.6666" stroke="#590100" stroke-width="4" stroke-linecap="round" stroke-linejoin="round"/>
<path d="M63.3333 51.4584H31.6666" stroke="#590100" stroke-width="4" stroke-linecap="round" stroke-linejoin="round"/>
<path d="M63.3333 67.2916H31.6666" stroke="#590100" stroke-width="4" stroke-linecap="round" stroke-linejoin="round"/>
</svg>
