<svg width="95" height="95" viewBox="0 0 95 95" fill="none" xmlns="http://www.w3.org/2000/svg">
<path d="M47.5 47.5H47.5001" stroke="#590100" stroke-width="4" stroke-linecap="round" stroke-linejoin="round"/>
<path d="M63.3333 23.75V15.8333C63.3333 13.7337 62.4992 11.72 61.0146 10.2354C59.5299 8.7507 57.5163 7.91663 55.4166 7.91663H39.5833C37.4837 7.91663 35.47 8.7507 33.9854 10.2354C32.5007 11.72 31.6666 13.7337 31.6666 15.8333V23.75" stroke="#590100" stroke-width="4" stroke-linecap="round" stroke-linejoin="round"/>
<path d="M87.0833 51.4584C75.3381 59.2127 61.574 63.3464 47.5 63.3464C33.4259 63.3464 19.6618 59.2127 7.91663 51.4584" stroke="#590100" stroke-width="4" stroke-linecap="round" stroke-linejoin="round"/>
<path d="M79.1666 23.75H15.8333C11.461 23.75 7.91663 27.2944 7.91663 31.6667V71.25C7.91663 75.6223 11.461 79.1667 15.8333 79.1667H79.1666C83.5389 79.1667 87.0833 75.6223 87.0833 71.25V31.6667C87.0833 27.2944 83.5389 23.75 79.1666 23.75Z" stroke="#590100" stroke-width="4" stroke-linecap="round" stroke-linejoin="round"/>
</svg>
