<svg width="95" height="95" viewBox="0 0 95 95" fill="none" xmlns="http://www.w3.org/2000/svg">
<path d="M63.3333 63.3333L75.2083 31.6666L87.0833 63.3333C83.6396 65.9062 79.4833 67.2916 75.2083 67.2916C70.9333 67.2916 66.7771 65.9062 63.3333 63.3333Z" stroke="#590100" stroke-width="4" stroke-linecap="round" stroke-linejoin="round"/>
<path d="M7.91669 63.3333L19.7917 31.6666L31.6667 63.3333C28.2229 65.9062 24.0667 67.2916 19.7917 67.2916C15.5167 67.2916 11.3604 65.9062 7.91669 63.3333Z" stroke="#590100" stroke-width="4" stroke-linecap="round" stroke-linejoin="round"/>
<path d="M27.7083 83.125H67.2916" stroke="#590100" stroke-width="4" stroke-linecap="round" stroke-linejoin="round"/>
<path d="M47.5 11.875V83.125" stroke="#590100" stroke-width="4" stroke-linecap="round" stroke-linejoin="round"/>
<path d="M11.875 27.7083H19.7917C27.7083 27.7083 39.5833 23.75 47.5 19.7916C55.4167 23.75 67.2917 27.7083 75.2083 27.7083H83.125" stroke="#590100" stroke-width="4" stroke-linecap="round" stroke-linejoin="round"/>
</svg>
