<svg width="43" height="43" viewBox="0 0 43 43" fill="none" xmlns="http://www.w3.org/2000/svg">
<path d="M26.875 10.3269C26.319 10.3269 25.7706 10.1976 25.2733 9.94902L17.7268 6.17577C17.2294 5.92724 16.681 5.79785 16.125 5.79785M26.875 10.3269C27.431 10.3269 27.9794 10.1976 28.4768 9.94902L35.0325 6.67027C35.3058 6.53367 35.6096 6.46926 35.9149 6.48317C36.2201 6.49707 36.5168 6.58882 36.7766 6.7497C37.0364 6.91058 37.2507 7.13523 37.3992 7.40231C37.5477 7.66939 37.6255 7.97002 37.625 8.2756V31.1444C37.6248 31.4771 37.5321 31.8031 37.3571 32.086C37.1821 32.3689 36.9318 32.5975 36.6342 32.7462L28.4768 36.8258C27.9794 37.0743 27.431 37.2037 26.875 37.2037M26.875 10.3269V37.2037M26.875 37.2037C26.319 37.2037 25.7706 37.0743 25.2733 36.8258L17.7268 33.0526C17.2294 32.804 16.681 32.6746 16.125 32.6746C15.569 32.6746 15.0206 32.804 14.5233 33.0526L7.96755 36.3313C7.69405 36.468 7.39013 36.5324 7.08471 36.5184C6.77929 36.5044 6.48253 36.4125 6.22267 36.2514C5.96281 36.0903 5.7485 35.8654 5.60012 35.5981C5.45175 35.3308 5.37425 35.0299 5.37501 34.7242V11.8571C5.37518 11.5245 5.46796 11.1985 5.64295 10.9156C5.81794 10.6327 6.06824 10.4041 6.3658 10.2554L14.5233 6.17577C15.0206 5.92724 15.569 5.79785 16.125 5.79785M16.125 5.79785V32.6727" stroke="#888888" stroke-width="2" stroke-linecap="round" stroke-linejoin="round"/>
</svg>
